# xmcd
#
# Track frame offsets: 
#        150
#        17055
#        29224
#        40113
#        53389
#        64657
#        78656
#        92115
#        107962
#        121076
#        133350
#        147536
#        163481
#        173217
#
# Disc length: 2475 seconds
#
# Revision: 0
# Processed by: cddbd v1.5.2PL0 Copyright (c) Steve Scherf et al.
# Submitted via: ExactAudioCopy v0.95b3
#
DISCID=cc09a90e
DTITLE=The Clarke Family - Bluegrass Christmas
DYEAR=2003
DGENRE=Christmas
TTITLE0=The Holly and The Ivy
TTITLE1=God Rest Ye Merry Gentlemen
TTITLE2=Little Drummer Boy
TTITLE3=Auld Lang Syne
TTITLE4=Joseph and Mary
TTITLE5=Go Tell It On the Mountain
TTITLE6=The Keys to Bethlehem
TTITLE7=We Three Kings
TTITLE8=O Mary, Where Is Your Baby
TTITLE9=Away In the Manger
TTITLE10=O Jerusalem In the Morning
TTITLE11=Jeanette Isabella
TTITLE12=O Come All Ye Faithful
TTITLE13=Jingle Bells
EXTD=
EXTT0=
EXTT1=
EXTT2=
EXTT3=
EXTT4=
EXTT5=
EXTT6=
EXTT7=
EXTT8=
EXTT9=
EXTT10=
EXTT11=
EXTT12=
EXTT13=
PLAYORDER=
